<?xml version="1.0" standalone="no"?>
<!DOCTYPE svg PUBLIC "-//W3C//DTD SVG 20010904//EN"
 "http://www.w3.org/TR/2001/REC-SVG-20010904/DTD/svg10.dtd">
<svg version="1.0" xmlns="http://www.w3.org/2000/svg"
 width="500.000000pt" height="500.000000pt" viewBox="0 0 500.000000 500.000000"
 preserveAspectRatio="xMidYMid meet">

<g transform="translate(0.000000,500.000000) scale(0.100000,-0.100000)"
fill="#000000" stroke="none">
<path d="M1395 4350 c-270 -54 -527 -269 -636 -531 -59 -144 -73 -219 -73
-384 0 -164 14 -240 73 -382 110 -266 352 -470 632 -529 103 -22 306 -14 404
17 241 75 439 253 551 494 66 143 79 210 78 405 0 160 -3 182 -27 263 -81 265
-259 475 -492 583 -121 56 -209 74 -349 73 -67 -1 -139 -5 -161 -9z"/>
<path d="M3395 4215 c-220 -48 -406 -197 -511 -410 -60 -123 -76 -187 -81
-340 -4 -110 -2 -144 16 -220 42 -176 152 -351 282 -450 334 -252 782 -189
1037 148 62 82 86 127 118 220 82 240 42 541 -98 740 -74 106 -205 214 -322
267 -126 57 -304 75 -441 45z"/>
<path d="M3375 2479 c-257 -27 -501 -129 -698 -292 l-49 -40 34 -26 c63 -49
161 -146 239 -240 214 -256 349 -581 384 -923 l7 -68 804 0 804 0 0 193 c0
314 -37 481 -156 707 -175 331 -498 581 -854 660 -165 37 -345 47 -515 29z"/>
<path d="M1386 2209 c-320 -28 -630 -171 -859 -396 -282 -277 -426 -630 -427
-1046 l0 -137 1453 2 1452 3 -1 185 c-1 150 -5 202 -22 276 -60 258 -168 467
-340 657 -313 347 -740 502 -1256 456z"/>
</g>
</svg>
