<?xml version="1.0" standalone="no"?>
<!DOCTYPE svg PUBLIC "-//W3C//DTD SVG 20010904//EN"
 "http://www.w3.org/TR/2001/REC-SVG-20010904/DTD/svg10.dtd">
<svg version="1.0" xmlns="http://www.w3.org/2000/svg"
 width="500.000000pt" height="500.000000pt" viewBox="0 0 500.000000 500.000000"
 preserveAspectRatio="xMidYMid meet">

<g transform="translate(0.000000,500.000000) scale(0.100000,-0.100000)"
fill="#000000" stroke="none">
<path d="M2245 4655 c-267 -32 -551 -122 -780 -248 -207 -114 -359 -232 -531
-409 -288 -300 -470 -644 -558 -1058 -118 -554 -5 -1150 307 -1623 100 -153
175 -242 308 -373 321 -312 700 -505 1154 -585 188 -34 522 -34 710 0 503 89
916 316 1258 691 499 548 679 1332 471 2053 -105 365 -281 658 -563 937 -155
153 -276 247 -453 349 -390 223 -866 319 -1323 266z m630 -229 c833 -169 1450
-825 1570 -1668 19 -132 19 -384 0 -516 -94 -659 -492 -1213 -1080 -1501 -277
-137 -552 -200 -862 -201 -1007 -1 -1844 751 -1954 1756 -17 159 -6 427 25
579 79 389 261 731 541 1010 312 313 715 510 1155 564 41 6 167 8 280 6 166
-4 228 -9 325 -29z"/>
<path d="M2456 4245 c-41 -22 -54 -43 -61 -102 -9 -70 2 -128 32 -163 35 -42
99 -43 145 -1 33 29 33 30 33 120 0 87 -1 92 -30 121 -37 37 -80 46 -119 25z"/>
<path d="M1509 3517 c-25 -19 -39 -52 -39 -91 0 -38 109 -297 242 -576 137
-286 307 -571 406 -681 140 -156 537 -380 1125 -635 172 -74 217 -81 261 -38
46 46 38 87 -60 312 -231 531 -458 930 -605 1067 -155 143 -528 348 -1036 571
-198 86 -256 100 -294 71z m481 -385 c351 -168 629 -331 720 -422 59 -59 180
-249 285 -447 102 -192 239 -482 232 -490 -8 -7 -335 148 -511 242 -182 98
-370 219 -426 275 -91 91 -281 418 -440 757 -81 171 -86 183 -72 183 4 0 99
-44 212 -98z"/>
<path d="M2429 2571 c-39 -39 -40 -96 -3 -140 22 -27 33 -31 73 -31 65 0 101
36 101 102 0 39 -5 50 -31 72 -44 37 -101 36 -140 -3z"/>
<path d="M830 2603 c-34 -6 -78 -49 -85 -84 -8 -37 18 -92 52 -110 16 -9 57
-14 109 -14 78 0 85 2 113 30 26 24 31 36 31 75 0 36 -5 52 -23 68 -39 37
-114 50 -197 35z"/>
<path d="M4023 2600 c-71 -23 -97 -110 -48 -168 19 -23 37 -32 75 -37 112 -15
190 17 205 85 8 35 -16 89 -46 108 -27 17 -145 24 -186 12z"/>
<path d="M2430 1022 c-33 -33 -45 -90 -35 -167 11 -89 77 -134 148 -100 49 23
62 54 62 153 0 82 -1 85 -33 113 -45 40 -102 40 -142 1z"/>
</g>
</svg>
