<?xml version="1.0" standalone="no"?>
<!DOCTYPE svg PUBLIC "-//W3C//DTD SVG 20010904//EN"
 "http://www.w3.org/TR/2001/REC-SVG-20010904/DTD/svg10.dtd">
<svg version="1.0" xmlns="http://www.w3.org/2000/svg"
 width="500.000000pt" height="500.000000pt" viewBox="0 0 500.000000 500.000000"
 preserveAspectRatio="xMidYMid meet">

<g transform="translate(0.000000,500.000000) scale(0.100000,-0.100000)"
fill="#000000" stroke="none">
<path d="M2320 4635 c-389 -73 -692 -349 -806 -730 -38 -127 -45 -346 -16
-485 64 -311 267 -572 557 -715 319 -157 713 -132 1006 65 161 109 277 242
361 416 79 166 92 227 92 444 0 174 -2 191 -27 275 -73 237 -216 436 -409 566
-88 60 -231 125 -328 149 -111 28 -324 35 -430 15z"/>
<path d="M2098 2389 c-472 -46 -938 -283 -1255 -639 -268 -301 -436 -680 -483
-1085 -22 -200 -10 -280 47 -304 21 -8 554 -11 2105 -9 l2078 3 27 27 c23 23
28 38 31 93 6 89 -14 267 -44 404 -184 824 -867 1427 -1713 1511 -121 12 -666
11 -793 -1z"/>
</g>
</svg>
