<?xml version="1.0" standalone="no"?>
<!DOCTYPE svg PUBLIC "-//W3C//DTD SVG 20010904//EN"
 "http://www.w3.org/TR/2001/REC-SVG-20010904/DTD/svg10.dtd">
<svg version="1.0" xmlns="http://www.w3.org/2000/svg"
 width="500.000000pt" height="500.000000pt" viewBox="0 0 500.000000 500.000000"
 preserveAspectRatio="xMidYMid meet">

<g transform="translate(0.000000,500.000000) scale(0.100000,-0.100000)"
fill="#000000" stroke="none">
<path d="M1560 4355 c-8 -2 -49 -9 -90 -15 -347 -56 -677 -287 -861 -602 -54
-93 -115 -248 -141 -360 -29 -126 -32 -392 -5 -516 53 -243 158 -441 324 -613
139 -145 261 -227 442 -300 164 -65 259 -83 456 -83 181 -1 266 12 403 58 161
56 317 146 429 250 35 32 67 56 73 54 6 -2 425 -368 931 -813 507 -446 924
-811 928 -812 8 -2 101 104 101 116 0 4 -404 363 -897 797 -494 434 -911 801
-928 816 -28 25 -29 28 -16 50 109 173 168 306 203 460 29 126 32 392 5 516
-53 243 -158 441 -324 613 -139 145 -261 227 -442 300 -148 59 -250 79 -426
84 -82 2 -157 2 -165 0z m300 -170 c181 -30 332 -93 475 -200 386 -288 537
-772 384 -1230 -97 -289 -336 -541 -623 -655 -296 -117 -650 -99 -916 47 -476
262 -690 806 -519 1318 99 294 341 546 635 659 188 72 372 92 564 61z"/>
</g>
</svg>
