<?xml version="1.0" standalone="no"?>
<!DOCTYPE svg PUBLIC "-//W3C//DTD SVG 20010904//EN"
 "http://www.w3.org/TR/2001/REC-SVG-20010904/DTD/svg10.dtd">
<svg version="1.0" xmlns="http://www.w3.org/2000/svg"
 width="500.000000pt" height="500.000000pt" viewBox="0 0 500.000000 500.000000"
 preserveAspectRatio="xMidYMid meet">

<g transform="translate(0.000000,500.000000) scale(0.100000,-0.100000)"
fill="#000000" stroke="none">
<path d="M2219 4656 c-89 -32 -145 -88 -173 -176 -8 -25 -25 -106 -37 -180
-12 -74 -25 -142 -29 -150 -5 -9 -32 -24 -62 -34 -29 -11 -91 -36 -137 -58
-46 -21 -87 -38 -92 -38 -4 0 -66 42 -138 94 -72 52 -151 102 -176 111 -55 22
-153 17 -210 -10 -60 -28 -369 -338 -394 -395 -54 -125 -38 -185 99 -379 55
-79 100 -147 100 -152 0 -5 -11 -32 -25 -59 -14 -28 -40 -90 -57 -138 -17 -48
-32 -88 -34 -90 -1 -2 -76 -16 -166 -32 -209 -36 -252 -54 -309 -133 l-29 -40
0 -306 0 -306 34 -45 c52 -71 109 -96 287 -125 85 -14 163 -30 174 -34 13 -6
29 -32 44 -77 13 -38 39 -99 58 -136 18 -37 33 -72 33 -78 0 -5 -40 -66 -90
-134 -110 -151 -130 -192 -130 -271 0 -103 27 -145 213 -329 184 -184 222
-208 320 -209 82 0 115 15 273 128 73 52 138 95 144 95 6 0 33 -11 60 -25 28
-14 88 -39 135 -56 65 -24 86 -36 90 -52 3 -12 14 -78 25 -147 27 -176 45
-226 100 -281 72 -73 103 -79 375 -79 256 0 298 7 363 58 63 50 88 110 117
278 14 82 28 159 30 171 4 16 24 28 90 52 46 17 112 44 145 61 l61 31 132 -94
c73 -52 147 -102 166 -112 56 -29 137 -31 205 -5 53 20 79 42 231 194 151 151
175 179 194 229 43 117 25 175 -113 370 l-97 137 17 32 c10 18 38 85 64 147
l46 115 167 27 c192 32 248 56 303 128 l34 44 0 307 0 307 -29 40 c-56 78
-108 100 -311 133 -69 11 -134 22 -145 25 -15 3 -28 26 -49 82 -16 43 -42 104
-57 135 -16 32 -29 65 -29 75 0 10 41 74 90 143 49 69 98 141 107 160 25 50
25 171 -1 225 -11 23 -92 113 -190 211 -151 151 -178 174 -229 193 -116 43
-176 25 -360 -107 -70 -50 -131 -93 -135 -96 -5 -3 -38 9 -73 25 -35 17 -102
45 -149 61 -47 17 -86 32 -88 33 -1 1 -16 80 -32 175 -33 191 -51 235 -117
289 -67 55 -102 61 -362 61 -167 -1 -247 -5 -272 -14z m518 -430 c17 -103 34
-199 38 -214 9 -38 58 -78 112 -91 87 -23 136 -42 277 -109 128 -61 141 -65
175 -56 20 6 109 63 198 127 89 64 168 117 175 117 17 0 288 -271 288 -288 0
-8 -32 -60 -72 -116 -162 -228 -171 -242 -171 -283 1 -26 18 -72 56 -148 31
-60 72 -159 91 -219 38 -115 54 -142 96 -158 14 -6 112 -25 219 -43 124 -21
196 -37 202 -46 11 -18 11 -380 0 -398 -6 -9 -80 -26 -213 -47 -140 -23 -211
-40 -228 -52 -31 -23 -52 -65 -80 -157 -11 -38 -50 -132 -86 -207 -54 -112
-65 -142 -59 -167 4 -17 60 -108 126 -201 65 -93 119 -175 119 -182 0 -17
-271 -288 -288 -288 -8 0 -84 50 -170 112 -86 61 -176 118 -198 127 l-41 15
-139 -67 c-77 -36 -170 -76 -209 -87 -92 -28 -134 -49 -157 -80 -12 -17 -28
-86 -48 -210 -17 -102 -32 -195 -35 -207 -5 -23 -6 -23 -215 -23 -209 0 -210
0 -215 23 -3 12 -17 94 -30 182 -14 88 -30 177 -36 197 -12 45 -56 84 -112 99
-87 23 -165 54 -269 106 -68 33 -121 53 -142 53 -37 0 -59 -14 -275 -168 -63
-45 -119 -82 -125 -82 -17 0 -286 273 -286 290 0 9 54 92 120 185 146 206 145
200 66 354 -30 58 -70 155 -90 214 -41 123 -56 149 -92 166 -15 6 -106 25
-203 41 -97 16 -188 32 -203 36 l-28 6 0 209 c0 208 0 209 22 214 13 3 106 19
208 35 122 20 194 37 210 49 31 22 52 63 85 172 15 47 51 137 81 199 35 73 54
125 54 149 0 30 -20 65 -125 214 -101 142 -124 180 -116 195 5 9 70 77 145
151 l135 134 28 -18 c15 -10 80 -55 143 -100 183 -131 190 -135 229 -135 25 0
70 17 136 52 55 28 156 71 225 94 173 60 160 38 215 358 14 81 28 152 31 157
3 5 95 8 212 7 l207 -3 32 -189z"/>
<path d="M2390 3430 c-102 -13 -159 -28 -250 -67 -239 -102 -411 -279 -511
-523 -62 -152 -80 -368 -45 -532 79 -368 377 -659 746 -729 83 -15 257 -15
340 0 187 36 359 127 492 262 125 126 217 293 254 459 20 91 22 290 5 375 -40
195 -121 346 -260 486 -137 136 -280 215 -461 254 -88 18 -231 25 -310 15z
m315 -271 c117 -40 194 -87 280 -174 129 -129 193 -271 202 -450 6 -130 -12
-219 -73 -343 -38 -79 -61 -110 -128 -178 -68 -68 -99 -90 -177 -127 -209
-101 -411 -102 -614 -2 -191 94 -326 269 -369 478 -32 154 -13 294 61 446 37
78 59 109 127 177 68 68 99 90 178 128 127 62 195 77 333 72 81 -3 128 -10
180 -27z"/>
</g>
</svg>
